<svg width="458" height="64" viewBox="0 0 458 64" fill="none" xmlns="http://www.w3.org/2000/svg">
    <style>
        #laravel { fill: #1B1B18 } @media (prefers-color-scheme:dark) { #laravel { fill: #fff } }
        #scout { fill: #868682 } @media (prefers-color-scheme:dark) { #scout { fill: #A1A09A } }
    </style>
<rect width="64" height="64" fill="#EB3F32"/>
<path d="M12 34L32 45L52 34V41L32 52L12 41V34ZM12 12L32 23L52 12V29L32 40L12 29V12Z" fill="#FDFDFC"/>
<path id="laravel" fill-rule="evenodd" clip-rule="evenodd" d="M103.659 7.625H96V55.5535H118.046V48.5012H103.659V7.625Z" fill="#1B1B18"/>
<path id="laravel" fill-rule="evenodd" clip-rule="evenodd" d="M145.087 27.9603C144.109 26.3627 142.722 25.1079 140.924 24.1946C139.126 23.2817 137.316 22.8251 135.496 22.8251C133.141 22.8251 130.988 23.2703 129.035 24.1602C127.08 25.0501 125.404 26.2723 124.006 27.8235C122.607 29.3757 121.519 31.1675 120.742 33.1978C119.964 35.2297 119.576 37.3643 119.576 39.6003C119.576 41.8831 119.964 44.0283 120.742 46.0362C121.519 48.0455 122.607 49.8258 124.006 51.377C125.404 52.9292 127.08 54.15 129.035 55.0399C130.988 55.9298 133.141 56.375 135.496 56.375C137.316 56.375 139.126 55.9183 140.924 55.0059C142.722 54.0936 144.11 52.8383 145.087 51.2402V55.5539H152.346V23.6471H145.087V27.9603ZM144.421 43.5027C143.977 44.7355 143.355 45.8081 142.556 46.7209C141.756 47.6342 140.791 48.3644 139.659 48.912C138.526 49.46 137.271 49.7335 135.895 49.7335C134.518 49.7335 133.275 49.46 132.165 48.912C131.054 48.364 130.1 47.6342 129.301 46.7209C128.502 45.8081 127.891 44.7355 127.469 43.5027C127.047 42.2704 126.837 40.9693 126.837 39.6003C126.837 38.2307 127.047 36.9296 127.469 35.6973C127.89 34.465 128.502 33.3929 129.301 32.4796C130.1 31.5672 131.055 30.8361 132.165 30.2886C133.275 29.7406 134.518 29.467 135.895 29.467C137.271 29.467 138.526 29.7406 139.659 30.2886C140.791 30.8366 141.756 31.5672 142.556 32.4796C143.355 33.3929 143.977 34.465 144.421 35.6973C144.864 36.9296 145.087 38.2307 145.087 39.6003C145.087 40.9693 144.864 42.2704 144.421 43.5027Z" fill="#1B1B18"/>
<path id="laravel" fill-rule="evenodd" clip-rule="evenodd" d="M204.099 27.9603C203.121 26.3627 201.734 25.1079 199.936 24.1946C198.138 23.2817 196.328 22.8251 194.508 22.8251C192.153 22.8251 190.001 23.2703 188.047 24.1602C186.093 25.0501 184.417 26.2723 183.018 27.8235C181.619 29.3757 180.531 31.1675 179.754 33.1978C178.977 35.2297 178.589 37.3643 178.589 39.6003C178.589 41.8831 178.977 44.0283 179.754 46.0362C180.531 48.0455 181.619 49.8258 183.018 51.377C184.417 52.9292 186.092 54.15 188.047 55.0399C190 55.9298 192.153 56.375 194.508 56.375C196.328 56.375 198.138 55.9183 199.936 55.0059C201.734 54.0936 203.122 52.8383 204.099 51.2402V55.5539H211.359V23.6471H204.099V27.9603ZM203.433 43.5027C202.988 44.7355 202.367 45.8081 201.568 46.7209C200.768 47.6342 199.803 48.3644 198.67 48.912C197.538 49.46 196.283 49.7335 194.907 49.7335C193.53 49.7335 192.286 49.46 191.177 48.912C190.066 48.364 189.112 47.6342 188.313 46.7209C187.513 45.8081 186.903 44.7355 186.481 43.5027C186.058 42.2704 185.849 40.9693 185.849 39.6003C185.849 38.2307 186.058 36.9296 186.481 35.6973C186.902 34.465 187.513 33.3929 188.313 32.4796C189.112 31.5672 190.067 30.8361 191.177 30.2886C192.286 29.7406 193.53 29.467 194.907 29.467C196.283 29.467 197.538 29.7406 198.67 30.2886C199.803 30.8366 200.768 31.5672 201.568 32.4796C202.367 33.3929 202.988 34.465 203.433 35.6973C203.876 36.9296 204.099 38.2307 204.099 39.6003C204.099 40.9693 203.876 42.2704 203.433 43.5027Z" fill="#1B1B18"/>
<path id="laravel" fill-rule="evenodd" clip-rule="evenodd" d="M291 7.625H283.741V55.5535H291V7.625Z" fill="#1B1B18"/>
<path id="laravel" fill-rule="evenodd" clip-rule="evenodd" d="M158.075 55.5535H165.335V30.9901H177.79V23.6471H158.075V55.5535Z" fill="#1B1B18"/>
<path id="laravel" fill-rule="evenodd" clip-rule="evenodd" d="M240.465 23.6471L231.34 48.0804L222.216 23.6471H214.862L226.778 55.5535H235.902L247.818 23.6471H240.465Z" fill="#1B1B18"/>
<path id="laravel" fill-rule="evenodd" clip-rule="evenodd" d="M263.652 22.8265C254.762 22.8265 247.725 30.3369 247.725 39.6007C247.725 49.8416 254.536 56.375 264.582 56.375C270.205 56.375 273.795 54.1648 278.181 49.3514L273.276 45.4504C273.273 45.4542 269.574 50.4469 264.051 50.4469C257.631 50.4469 254.928 45.1262 254.928 42.3733H279.013C280.278 31.8326 273.537 22.8265 263.652 22.8265ZM254.947 36.8278C255.003 36.2138 255.839 28.7541 263.594 28.7541C271.349 28.7541 272.291 36.2128 272.345 36.8278H254.947Z" fill="#1B1B18"/>
<path id="scout" fill-rule="evenodd" clip-rule="evenodd" d="M384.071 56.565C380.921 56.565 378.149 55.83 375.755 54.36C373.361 52.89 371.492 50.895 370.148 48.375C368.846 45.813 368.195 42.936 368.195 39.744C368.195 36.51 368.867 33.654 370.211 31.176C371.555 28.698 373.403 26.745 375.755 25.317C378.149 23.889 380.921 23.175 384.071 23.175C387.263 23.175 390.035 23.889 392.387 25.317C394.781 26.745 396.629 28.698 397.931 31.176C399.275 33.654 399.947 36.51 399.947 39.744C399.947 42.936 399.275 45.813 397.931 48.375C396.629 50.895 394.781 52.89 392.387 54.36C390.035 55.83 387.263 56.565 384.071 56.565ZM384.071 52.281C386.255 52.281 388.145 51.756 389.741 50.706C391.337 49.614 392.576 48.123 393.458 46.233C394.34 44.343 394.781 42.159 394.781 39.681C394.781 35.985 393.794 33.024 391.82 30.798C389.888 28.572 387.305 27.459 384.071 27.459C380.879 27.459 378.296 28.572 376.322 30.798C374.348 33.024 373.361 35.985 373.361 39.681C373.361 42.159 373.802 44.343 374.684 46.233C375.566 48.123 376.805 49.614 378.401 50.706C380.039 51.756 381.929 52.281 384.071 52.281Z" fill="#868682"/>
<path id="scout" fill-rule="evenodd" clip-rule="evenodd" d="M351.973 56.565C349.033 56.565 346.408 55.851 344.098 54.423C341.83 52.953 340.024 50.958 338.68 48.438C337.378 45.876 336.727 42.978 336.727 39.744C336.727 36.51 337.378 33.654 338.68 31.176C340.024 28.698 341.83 26.745 344.098 25.317C346.408 23.889 349.012 23.175 351.91 23.175C354.304 23.175 356.446 23.637 358.336 24.561C360.268 25.485 361.843 26.808 363.061 28.53C364.321 30.21 365.119 32.184 365.455 34.452H360.793C360.373 32.394 359.407 30.714 357.895 29.412C356.383 28.11 354.43 27.459 352.036 27.459C349.978 27.459 348.193 27.963 346.681 28.971C345.169 29.979 343.993 31.407 343.153 33.255C342.313 35.103 341.893 37.266 341.893 39.744C341.893 42.222 342.313 44.406 343.153 46.296C343.993 48.186 345.169 49.656 346.681 50.706C348.235 51.756 350.041 52.281 352.099 52.281C354.409 52.281 356.341 51.651 357.895 50.391C359.449 49.089 360.436 47.409 360.856 45.351H365.518C365.14 47.577 364.3 49.551 362.998 51.273C361.738 52.953 360.163 54.255 358.273 55.179C356.383 56.103 354.283 56.565 351.973 56.565Z" fill="#868682"/>
<path id="scout" fill-rule="evenodd" clip-rule="evenodd" d="M318.137 56.4351C312.847 56.4351 308.628 55.0666 305.479 52.3297C302.372 49.5927 300.546 45.686 300 40.6094H305.038C305.5 44.2733 306.823 47.0324 309.006 48.8864C311.189 50.7405 314.212 51.6675 318.074 51.6675C321.349 51.6675 323.805 51.0274 325.443 49.7472C327.122 48.4229 327.962 46.5026 327.962 43.9864C327.962 41.8233 327.395 40.1017 326.261 38.8215C325.128 37.5414 323.365 36.4819 320.971 35.6432L313.351 32.8621C309.489 31.4495 306.634 29.7499 304.786 27.7634C302.939 25.7328 302.015 23.1724 302.015 20.0824C302.015 17.522 302.624 15.3148 303.842 13.4607C305.059 11.5625 306.781 10.0837 309.006 9.02425C311.231 7.96479 313.813 7.43506 316.752 7.43506C321.286 7.43506 324.918 8.69317 327.647 11.2094C330.376 13.6815 331.95 17.213 332.37 21.804H327.332C326.786 18.4932 325.653 16.0652 323.931 14.5202C322.252 12.9751 319.817 12.2026 316.626 12.2026C313.603 12.2026 311.252 12.8427 309.573 14.1229C307.893 15.4031 307.053 17.213 307.053 19.5526C307.053 21.5391 307.641 23.1283 308.817 24.3202C309.992 25.5121 311.819 26.5495 314.296 27.4324L322.42 30.4121C325.947 31.6923 328.592 33.436 330.355 35.6432C332.118 37.8062 333 40.5652 333 43.9202C333 47.8932 331.698 50.9833 329.095 53.1905C326.534 55.3535 322.882 56.4351 318.137 56.4351Z" fill="#868682"/>
<path id="scout" fill-rule="evenodd" clip-rule="evenodd" d="M410.358 55.305C411.996 56.145 413.865 56.565 415.965 56.565C418.695 56.565 421.173 55.872 423.399 54.486C425.296 53.3048 426.766 51.7576 427.809 49.8443V55.935H432.534V23.805H427.494V41.193C427.494 43.335 427.032 45.246 426.108 46.926C425.226 48.564 424.008 49.845 422.454 50.769C420.9 51.693 419.115 52.155 417.099 52.155C414.873 52.155 413.151 51.546 411.933 50.328C410.757 49.11 410.169 47.283 410.169 44.847V23.805H405.129V46.17C405.129 48.228 405.591 50.055 406.515 51.651C407.439 53.205 408.72 54.423 410.358 55.305Z" fill="#868682"/>
<path id="scout" fill-rule="evenodd" clip-rule="evenodd" d="M445.46 54.108C447.098 55.704 449.702 56.502 453.272 56.502C454.238 56.502 455.099 56.439 455.855 56.313C456.653 56.229 457.262 56.103 457.682 55.935V51.651C457.304 51.819 456.8 51.966 456.17 52.092C455.582 52.176 454.868 52.218 454.028 52.218C451.928 52.218 450.416 51.798 449.492 50.958C448.568 50.118 448.106 48.795 448.106 46.989V28.089H457.682V23.805H448.106V14.418L443.066 16.308V23.805H436.451V28.089H443.066V47.052C443.066 50.118 443.864 52.47 445.46 54.108Z" fill="#868682"/>
</svg>
